<?xml version="1.0" standalone="no"?>
<!DOCTYPE svg PUBLIC "-//W3C//DTD SVG 20010904//EN"
 "http://www.w3.org/TR/2001/REC-SVG-20010904/DTD/svg10.dtd">
<svg version="1.0" xmlns="http://www.w3.org/2000/svg"
 width="300.000000pt" height="300.000000pt" viewBox="0 0 300.000000 300.000000"
 preserveAspectRatio="xMidYMid meet">
<metadata>
Created by potrace 1.11, written by Peter Selinger 2001-2013
</metadata>
<g transform="translate(0.000000,300.000000) scale(0.100000,-0.100000)"
fill="#000000" stroke="none">
<path d="M1683 2553 l2 -38 -76 -3 c-70 -3 -77 -1 -82 18 -4 17 -13 20 -61 19
-33 -1 -56 -6 -57 -13 -1 -6 -2 -23 -3 -38 -1 -36 -8 -41 -58 -42 l-43 -1 -1
-68 c-1 -37 -5 -71 -9 -75 -13 -13 -75 -9 -75 5 0 13 -16 17 -55 14 -11 -1
-51 -3 -90 -4 l-70 -2 -3 -43 c-2 -23 -7 -42 -13 -42 -5 0 -9 -80 -9 -195 l0
-195 -40 0 -40 0 0 -95 0 -95 28 0 c26 0 27 -1 24 -49 l-4 -48 -80 1 c-44 1
-84 -1 -88 -4 -5 -3 -10 -21 -12 -40 l-4 -35 -130 0 -129 0 -5 -50 -5 -50
-125 0 -125 0 0 -35 c0 -34 -1 -35 -43 -38 -31 -2 -43 0 -41 10 7 56 4 58 -81
58 l-80 0 0 -35 0 -35 75 0 75 0 0 -44 0 -44 73 1 72 1 3 -52 c3 -44 6 -52 23
-52 16 0 19 -7 19 -44 0 -34 4 -45 17 -48 12 -2 16 -15 17 -53 1 -37 5 -50 16
-50 11 0 15 -11 14 -38 0 -31 4 -39 22 -43 13 -3 28 -3 33 1 7 4 11 -7 11 -29
l0 -35 53 2 c51 2 52 3 52 32 1 22 5 29 15 25 8 -2 56 -7 105 -10 l91 -5 -1
-37 c0 -20 -4 -40 -8 -45 -5 -4 -57 -8 -115 -8 l-107 0 1 -43 c1 -30 -3 -42
-13 -42 -11 0 -13 -13 -11 -52 2 -39 7 -53 18 -53 10 0 15 -10 14 -33 0 -17 2
-32 5 -33 3 -1 20 -2 36 -3 26 -1 30 -5 30 -31 0 -29 2 -30 48 -33 46 -3 47
-3 47 27 0 28 3 31 30 31 27 0 30 3 30 34 0 39 8 44 73 41 l47 -2 0 48 0 48
43 3 c41 3 42 4 42 40 0 20 4 40 8 45 5 4 59 8 120 8 l112 0 0 48 0 47 83 0
82 0 0 49 c0 49 0 49 33 49 17 0 53 0 79 1 l48 1 -3 37 -2 38 48 3 47 3 0 45
c0 35 4 44 18 45 59 4 57 2 58 47 1 23 4 45 7 49 4 3 33 6 64 5 32 0 64 5 71
11 8 6 27 10 43 9 26 -2 29 1 29 27 0 17 5 33 10 36 6 3 10 15 10 26 0 20 27
22 413 20 l127 -1 0 53 c0 35 4 55 13 56 6 2 119 5 249 8 l237 4 0 90 c0 49
-3 89 -7 90 -4 1 -38 2 -77 3 -69 1 -70 2 -68 28 l2 27 -87 3 c-69 2 -87 6
-88 18 -1 8 -2 20 -2 26 -1 7 -25 10 -62 9 -49 -2 -60 1 -61 14 -1 9 -2 34 -3
56 -1 34 -4 40 -23 41 -40 2 -44 4 -42 17 6 48 11 47 -181 47 -139 0 -180 -3
-179 -12 4 -31 -3 -37 -43 -40 -41 -3 -43 -5 -45 -36 -2 -54 -8 -61 -48 -58
l-35 4 0 -54 0 -54 -140 0 c-105 0 -140 -3 -141 -12 -1 -7 -2 -25 -3 -40 -1
-36 -7 -40 -58 -40 -92 0 -86 -4 -87 62 -1 63 4 68 57 61 9 -1 12 38 12 169
l0 170 49 0 50 0 3 53 c3 52 3 52 36 52 32 -1 32 -1 33 50 0 27 0 69 -1 93 -1
31 2 43 12 41 46 -6 46 -6 45 131 l0 130 -68 0 -67 0 1 -37z"/>
</g>
</svg>
